<!-- <svg width="170" height="169" viewBox="0 0 170 169" fill="none" xmlns="http://www.w3.org/2000/svg">
<path d="M84.5119 126.764C107.848 126.764 126.766 107.846 126.766 84.5092C126.766 61.1726 107.848 42.2546 84.5119 42.2546C61.1753 42.2546 42.2573 61.1726 42.2573 84.5092C42.2573 107.846 61.1753 126.764 84.5119 126.764Z" fill="#231F20"/>
<path fill-rule="evenodd" clip-rule="evenodd" d="M31.6916 84.488C31.6916 78.6493 26.9673 73.925 21.1286 73.925H10.563C4.7243 73.925 0 78.6493 0 84.488C0 90.3267 4.7243 95.051 10.563 95.051H21.126C26.9673 95.051 31.6916 90.3267 31.6916 84.488Z" fill="#231F20"/>
<path fill-rule="evenodd" clip-rule="evenodd" d="M32.2277 121.834L24.7491 129.315C20.6216 133.44 20.6216 140.126 24.7491 144.251C28.874 148.376 35.5603 148.376 39.6878 144.251L47.1691 136.772C51.2939 132.647 51.2939 125.958 47.1691 121.834C43.0389 117.706 36.3552 117.706 32.2277 121.834Z" fill="#231F20"/>
<path fill-rule="evenodd" clip-rule="evenodd" d="M84.5118 137.308C78.6731 137.308 73.9489 142.033 73.9489 147.871V158.437C73.9489 164.276 78.6731 169 84.5118 169C90.3505 169 95.0748 164.276 95.0748 158.437L95.0643 147.871C95.0748 142.033 90.34 137.308 84.5118 137.308Z" fill="#231F20"/>
<path fill-rule="evenodd" clip-rule="evenodd" d="M136.785 121.844C132.669 117.709 125.982 117.709 121.857 121.833C117.732 125.958 117.732 132.647 121.857 136.772L129.328 144.24C133.453 148.386 140.139 148.365 144.264 144.24C148.389 140.115 148.399 133.44 144.264 129.304L136.785 121.844Z" fill="#231F20"/>
<path fill-rule="evenodd" clip-rule="evenodd" d="M158.461 73.925L147.874 73.9462C142.056 73.925 137.332 78.6493 137.332 84.488C137.311 90.3267 142.056 95.051 147.874 95.051H158.44C164.299 95.0722 169.003 90.3267 169.003 84.488C169.013 78.6599 164.299 73.925 158.461 73.925Z" fill="#231F20"/>
<path fill-rule="evenodd" clip-rule="evenodd" d="M136.785 47.1531L144.253 39.6825C148.41 35.547 148.378 28.8712 144.253 24.7437C140.137 20.6057 133.453 20.6057 129.328 24.7332L121.857 32.2223C117.732 36.3287 117.732 43.0124 121.857 47.1399C125.961 51.2912 132.669 51.2701 136.785 47.1531Z" fill="#231F20"/>
<path fill-rule="evenodd" clip-rule="evenodd" d="M84.5118 31.6678C90.34 31.71 95.0748 26.9435 95.0748 21.1259V10.5629C95.0748 4.70312 90.3505 -5.14927e-05 84.5118 -5.14927e-05C78.6731 -0.0211775 73.9489 4.70312 73.9489 10.5445L73.97 21.1286C73.9489 26.9435 78.6731 31.6678 84.5118 31.6678Z" fill="#231F20"/>
<path fill-rule="evenodd" clip-rule="evenodd" d="M32.2488 47.1426C36.3552 51.2674 43.0204 51.2674 47.1585 47.132C51.315 43.0362 51.2939 36.3313 47.1796 32.2144L39.7089 24.7464C35.5629 20.5978 28.8977 20.6295 24.7702 24.7464C20.611 28.8633 20.611 35.547 24.7385 39.6745L32.2488 47.1426Z" fill="#231F20"/>
</svg> -->

<svg width="85" height="85" viewBox="0 0 85 85" fill="none" xmlns="http://www.w3.org/2000/svg">
<path d="M42.5118 84.7638C65.8484 84.7638 84.7664 65.8458 84.7664 42.5092C84.7664 19.1726 65.8484 0.254578 42.5118 0.254578C19.1752 0.254578 0.257202 19.1726 0.257202 42.5092C0.257202 65.8458 19.1752 84.7638 42.5118 84.7638Z" fill="#fffff"/>
</svg>
