<svg width="24" height="24" viewBox="0 0 169 169" fill="none" xmlns="http://www.w3.org/2000/svg">
<path d="M131.778 129.279C128.518 129.286 125.288 128.648 122.275 127.4C119.263 126.153 116.527 124.322 114.226 122.012L88.8761 96.6618C87.9787 95.8093 86.7882 95.3339 85.5504 95.3339C84.3126 95.3339 83.1221 95.8093 82.2247 96.6618L56.7781 122.108C54.4778 124.419 51.7422 126.251 48.7295 127.499C45.7169 128.746 42.4868 129.384 39.2262 129.375H34.2286L66.3387 161.486C76.358 171.505 92.6182 171.505 102.638 161.486L134.832 129.279H131.778ZM39.2262 39.6121C45.8655 39.6121 52.0944 42.1954 56.7781 46.8791L82.2247 72.3257C82.662 72.7637 83.1813 73.1112 83.753 73.3483C84.3247 73.5854 84.9375 73.7074 85.5564 73.7074C86.1753 73.7074 86.7882 73.5854 87.3599 73.3483C87.9316 73.1112 88.4509 72.7637 88.8882 72.3257L114.238 46.9757C116.537 44.6662 119.271 42.8349 122.281 41.5876C125.292 40.3403 128.519 39.7017 131.778 39.7087H134.832L102.638 7.51409C97.8229 2.70272 91.2948 0 84.4881 0C77.6815 0 71.1533 2.70272 66.3387 7.51409L34.2286 39.6242L39.2262 39.6121Z" fill="#8fdca7"/>
<path d="M161.474 66.3383L142.015 46.8791C141.578 47.0585 141.111 47.1527 140.638 47.1568H131.79C127.215 47.1568 122.737 49.0158 119.513 52.2509L94.1634 77.601C93.036 78.7342 91.6958 79.6336 90.2198 80.2472C88.7437 80.8609 87.161 81.1768 85.5625 81.1768C83.964 81.1768 82.3812 80.8609 80.9052 80.2472C79.4291 79.6336 78.0889 78.7342 76.9616 77.601L51.5149 52.1423C48.2502 48.8909 43.8337 47.0602 39.2262 47.0481H28.3619C27.9115 47.0445 27.4656 46.9586 27.0461 46.7946L7.51448 66.3383C-2.50483 76.3576 -2.50483 92.6179 7.51448 102.649L27.0461 122.181C27.4609 122.014 27.9027 121.924 28.3498 121.915H39.2262C43.8133 121.915 48.2798 120.068 51.5149 116.833L76.9495 91.3745C79.2703 89.1649 82.352 87.9324 85.5564 87.9324C88.7609 87.9324 91.8426 89.1649 94.1634 91.3745L119.513 116.725C122.737 119.96 127.215 121.807 131.79 121.807H140.638C141.121 121.807 141.592 121.927 142.015 122.096L161.474 102.637C171.493 92.6179 171.493 76.3576 161.474 66.3383Z" fill="#8fdca7"/>
</svg>
